<?xml version="1.0" encoding="UTF-8" standalone="no"?>
<!-- Created with Inkscape (http://www.inkscape.org/) -->

<svg
   width="100mm"
   height="100mm"
   viewBox="0 0 99.999993 100"
   version="1.1"
   id="svg5"
   xml:space="preserve"
   inkscape:version="1.2 (dc2aedaf03, 2022-05-15)"
   sodipodi:docname="drawing.svg"
   inkscape:export-filename="drawing.png"
   inkscape:export-xdpi="96"
   inkscape:export-ydpi="96"
   xmlns:inkscape="http://www.inkscape.org/namespaces/inkscape"
   xmlns:sodipodi="http://sodipodi.sourceforge.net/DTD/sodipodi-0.dtd"
   xmlns="http://www.w3.org/2000/svg"
   xmlns:svg="http://www.w3.org/2000/svg"><sodipodi:namedview
     id="namedview7"
     pagecolor="#ffffff"
     bordercolor="#000000"
     borderopacity="0.25"
     inkscape:showpageshadow="2"
     inkscape:pageopacity="0.0"
     inkscape:pagecheckerboard="0"
     inkscape:deskcolor="#d1d1d1"
     inkscape:document-units="mm"
     showgrid="false"
     inkscape:zoom="1.4142136"
     inkscape:cx="96.520073"
     inkscape:cy="126.57211"
     inkscape:window-width="2560"
     inkscape:window-height="1494"
     inkscape:window-x="-11"
     inkscape:window-y="-11"
     inkscape:window-maximized="1"
     inkscape:current-layer="layer1" /><defs
     id="defs2" /><g
     inkscape:label="Layer 1"
     inkscape:groupmode="layer"
     id="layer1"
     transform="translate(54.013054,-30.043278)"><rect
       style="opacity:1;fill:#ffffff;stroke:none;stroke-width:1.76389;stroke-dasharray:none"
       id="rect11573"
       width="100"
       height="100"
       x="-54.013054"
       y="30.043278" /><g
       id="g11519"
       transform="matrix(0.88477883,0,0,0.94956428,-117.02783,-34.088583)"><path
         style="fill:#404040;stroke:#404040;stroke-width:1.76389;stroke-dasharray:none"
         d="m 94.970972,90.272087 66.580908,-0.19106 v 7.24662 H 122.6512 c 0,0 0.002,36.240613 0,55.591923 -2.8e-4,2.69727 -2.89731,5.32088 -5.53008,5.90724 -4.42647,0.98585 -14.6124,-8.06445 -14.6124,-8.06445 l 3.20739,-5.49011 9.81751,6.58898 0.0661,-54.533583 -20.628798,0.0294 z"
         id="path11445-5"
         sodipodi:nodetypes="ccccsscccccc" /><path
         style="fill:none;stroke:#404040;stroke-width:7.72889;stroke-dasharray:none"
         d="m 140.76985,112.53541 c 0,0 -0.016,33.37785 0,40.29016 0.0159,6.9123 14.9068,0 14.9068,0"
         id="path11206-1"
         sodipodi:nodetypes="czc" /><path
         style="fill:none;stroke:#404040;stroke-width:7.05556;stroke-dasharray:none"
         d="M 88.174323,112.35497 H 167.29014"
         id="path11208-0" /><path
         style="opacity:1;fill:#ffffff;stroke:#404040;stroke-width:1.76389;stroke-dasharray:none"
         d="m 92.992415,87.254994 66.580915,-0.19106 v 7.24662 h -38.90068 c 0,0 0.002,36.240606 0,55.591916 -2.8e-4,2.69727 -2.89731,5.32088 -5.53008,5.90724 -4.42647,0.98585 -12.63385,-5.04735 -12.63385,-5.04735 l 3.20739,-5.49011 7.83896,3.57188 0.0661,-54.533576 -20.628805,0.0294 z"
         id="path11445"
         sodipodi:nodetypes="ccccsscccccc" /><path
         style="opacity:1;fill:#000000;stroke:#404040;stroke-width:1.76389;stroke-dasharray:none"
         d="m 92.84792,94.667359 1.978557,3.017091"
         id="path11469" /><path
         style="fill:#000000;stroke:#404040;stroke-width:1.76389;stroke-dasharray:none"
         d="m 159.71777,86.653521 1.97855,3.017091"
         id="path11469-5" /></g></g></svg>
